# xmcd CD database file
#
# Track frame offsets:
#	150
#	11423
#	25270
#	40960
#	54635
#	67750
#	81280
#	98730
#	112572
#	132154
#	146116
#	159313
#	174055
#	188461
#	201743
#
# Disc length: 2860 seconds
#
# Revision: 2
# Processed by: cddbd v1.5.2PL0 Copyright (c) Steve Scherf et al.
# Submitted via: CDex 1.51
#
DISCID=b80b2a0f
DTITLE=John Lee Hooker - Blues Is The Healer  [CD 07-10]
DYEAR=2005
DGENRE=Blues
TTITLE0=Please Don't Go
TTITLE1=I Don't Want Your Money
TTITLE2=Hey Baby
TTITLE3=Bluebird
TTITLE4=Walkin' The Boogie
TTITLE5=Love Blues
TTITLE6=Lonely Boy Boogie
TTITLE7=Apologize
TTITLE8=The Journey
TTITLE9=Worried Life Blues
TTITLE10=Down At The Landing
TTITLE11=You Have Two Hearts
TTITLE12=Blues For Big Town
TTITLE13=Women And Money
TTITLE14=Rock House Boogie
EXTD=YEAR: 2005
EXTT0=
EXTT1=
EXTT2=
EXTT3=
EXTT4=
EXTT5=
EXTT6=
EXTT7=
EXTT8=
EXTT9=
EXTT10=
EXTT11=
EXTT12=
EXTT13=
EXTT14=
PLAYORDER=
